<svg width="24" height="25" viewBox="0 0 24 25" fill="none" xmlns="http://www.w3.org/2000/svg">
<g id="card icons">
<path id="Vector" d="M8.36506 10.5L11.2001 8.5H14.6921L13.6001 5.5H11.0001V3.5H15.0001L16.0921 6.5H20.0001V9.5H17.1841L18.6401 13.502C19.7448 13.5371 20.798 13.9776 21.5988 14.7395C22.3996 15.5014 22.892 16.5313 22.9821 17.633C23.0722 18.7346 22.7537 19.8309 22.0873 20.7127C21.4209 21.5946 20.4533 22.2003 19.3689 22.4145C18.2845 22.6286 17.1593 22.4362 16.2077 21.8738C15.2561 21.3115 14.5448 20.4186 14.2093 19.3654C13.8739 18.3122 13.9378 17.1724 14.3888 16.1633C14.8399 15.1542 15.6466 14.3464 16.6551 13.894L15.4191 10.5H14.4721L12.8901 16.37L9.96507 17.439C10.0706 18.2812 9.93583 19.1362 9.57623 19.9051C9.21663 20.674 8.64689 21.3255 7.93279 21.7844C7.2187 22.2433 6.38937 22.4908 5.54058 22.4985C4.69178 22.5061 3.85813 22.2736 3.13587 21.8276C2.41362 21.3817 1.83222 20.7405 1.45881 19.9783C1.0854 19.216 0.93521 18.3636 1.02557 17.5196C1.11594 16.6756 1.44318 15.8744 1.9695 15.2084C2.49583 14.5424 3.19977 14.0389 4.00006 13.756V12.5H2.00006V10.5H8.36506ZM5.50006 20.5C6.16311 20.5 6.79899 20.2366 7.26783 19.7678C7.73667 19.2989 8.00006 18.663 8.00006 18C8.00006 17.337 7.73667 16.7011 7.26783 16.2322C6.79899 15.7634 6.16311 15.5 5.50006 15.5C4.83702 15.5 4.20114 15.7634 3.7323 16.2322C3.26346 16.7011 3.00006 17.337 3.00006 18C3.00006 18.663 3.26346 19.2989 3.7323 19.7678C4.20114 20.2366 4.83702 20.5 5.50006 20.5ZM18.5001 20.5C19.1631 20.5 19.799 20.2366 20.2678 19.7678C20.7367 19.2989 21.0001 18.663 21.0001 18C21.0001 17.337 20.7367 16.7011 20.2678 16.2322C19.799 15.7634 19.1631 15.5 18.5001 15.5C17.837 15.5 17.2011 15.7634 16.7323 16.2322C16.2635 16.7011 16.0001 17.337 16.0001 18C16.0001 18.663 16.2635 19.2989 16.7323 19.7678C17.2011 20.2366 17.837 20.5 18.5001 20.5Z" fill="#656365"/>
</g>
</svg>
