<svg width="24" height="22" viewBox="0 0 24 22" fill="none" xmlns="http://www.w3.org/2000/svg">
<g id="Group">
<path id="Vector" d="M1.5 2H3.25L4 5M4 5L6.5 15H19.5L22 5H4Z" stroke="#656365" stroke-width="4" stroke-linecap="round" stroke-linejoin="round"/>
<path id="Vector_2" d="M6.5 20C7.32843 20 8 19.3284 8 18.5C8 17.6716 7.32843 17 6.5 17C5.67157 17 5 17.6716 5 18.5C5 19.3284 5.67157 20 6.5 20Z" stroke="#656365" stroke-width="4" stroke-linecap="round" stroke-linejoin="round"/>
<path id="Vector_3" d="M19.5 20C20.3284 20 21 19.3284 21 18.5C21 17.6716 20.3284 17 19.5 17C18.6716 17 18 17.6716 18 18.5C18 19.3284 18.6716 20 19.5 20Z" stroke="#656365" stroke-width="4" stroke-linecap="round" stroke-linejoin="round"/>
</g>
</svg>
