<svg width="24" height="24" viewBox="0 0 24 24" fill="none" xmlns="http://www.w3.org/2000/svg">
<g id="Property 1=car" clip-path="url(#clip0_45_1565)">
<path id="Vector" d="M10 11.3333H12V12.6666H10V11.3333Z" fill="#656365"/>
<path id="Vector_2" d="M17.6335 9.44662C16.4511 7.51182 14.8382 5.87603 12.9202 4.66662C12.0341 4.10504 11.024 3.76891 9.97816 3.68757C8.93229 3.60622 7.8824 3.78213 6.92016 4.19995C6.0785 4.59695 5.34612 5.19286 4.78628 5.93622C4.22644 6.67958 3.85596 7.54805 3.70683 8.46662C3.6535 8.77995 3.6135 9.07995 3.5735 9.37328C2.94933 9.47445 2.38141 9.79412 1.97112 10.2752C1.56082 10.7564 1.33483 11.3676 1.3335 12V16.0866C1.3335 16.4402 1.47397 16.7794 1.72402 17.0294C1.97407 17.2795 2.31321 17.42 2.66683 17.42V12C2.66683 11.6463 2.80731 11.3072 3.05735 11.0571C3.3074 10.8071 3.64654 10.6666 4.00016 10.6666H16.4868C17.7717 10.6684 19.0034 11.1796 19.912 12.0881C20.8205 12.9967 21.3317 14.2284 21.3335 15.5133V16H20.0002C19.7186 15.3134 19.1941 14.7545 18.5268 14.4299C17.8594 14.1054 17.0959 14.0379 16.382 14.2404C15.6681 14.4429 15.0537 14.9011 14.6561 15.5277C14.2585 16.1542 14.1055 16.9053 14.2263 17.6375C14.3471 18.3696 14.7332 19.0317 15.3111 19.4973C15.8889 19.963 16.6179 20.1995 17.359 20.1619C18.1002 20.1243 18.8015 19.8151 19.3292 19.2934C19.8569 18.7717 20.1741 18.0739 20.2202 17.3333H21.3335C21.6871 17.3333 22.0263 17.1928 22.2763 16.9428C22.5264 16.6927 22.6668 16.3536 22.6668 16V15.5133C22.6641 14.0746 22.1601 12.6818 21.2415 11.5745C20.3228 10.4673 19.047 9.71482 17.6335 9.44662ZM7.3335 9.33328H4.62016C4.62016 9.12662 4.68016 8.91328 4.72016 8.66662C4.83534 7.93426 5.13593 7.24353 5.59334 6.66009C6.05075 6.07666 6.64979 5.61992 7.3335 5.33328V9.33328ZM8.66683 9.33328V5.05328C9.91146 4.89166 11.1737 5.16483 12.2402 5.82662C13.696 6.7334 14.9525 7.9264 15.9335 9.33328H8.66683ZM17.2002 18.92C16.8705 18.92 16.5483 18.8222 16.2742 18.6391C16.0001 18.4559 15.7865 18.1956 15.6604 17.8911C15.5342 17.5865 15.5012 17.2514 15.5655 16.9281C15.6298 16.6048 15.7886 16.3079 16.0217 16.0748C16.2547 15.8417 16.5517 15.683 16.875 15.6186C17.1983 15.5543 17.5334 15.5873 17.838 15.7135C18.1425 15.8396 18.4028 16.0533 18.5859 16.3273C18.7691 16.6014 18.8668 16.9236 18.8668 17.2533C18.8668 17.6953 18.6912 18.1192 18.3787 18.4318C18.0661 18.7444 17.6422 18.92 17.2002 18.92Z" fill="#656365"/>
<path id="Vector_3" d="M9.44651 15.9999C9.16495 15.3133 8.64045 14.7544 7.9731 14.4299C7.30575 14.1053 6.54226 14.0378 5.82834 14.2403C5.11442 14.4428 4.50003 14.901 4.10242 15.5276C3.70481 16.1542 3.55181 16.9052 3.67262 17.6374C3.79343 18.3696 4.17959 19.0316 4.75741 19.4973C5.33523 19.9629 6.06427 20.1995 6.80539 20.1619C7.54652 20.1242 8.24786 19.8151 8.77557 19.2934C9.30329 18.7716 9.62044 18.0739 9.66651 17.3332H13.1998V17.1665C13.1867 16.7732 13.2316 16.3801 13.3332 15.9999H9.44651ZM6.66651 18.9199C6.33687 18.9199 6.01464 18.8221 5.74056 18.639C5.46648 18.4559 5.25285 18.1956 5.12671 17.891C5.00056 17.5865 4.96756 17.2514 5.03187 16.9281C5.09617 16.6048 5.25491 16.3078 5.488 16.0747C5.72108 15.8416 6.01806 15.6829 6.34136 15.6186C6.66466 15.5543 6.99977 15.5873 7.30431 15.7134C7.60886 15.8396 7.86915 16.0532 8.05229 16.3273C8.23543 16.6013 8.33317 16.9236 8.33317 17.2532C8.33317 17.6952 8.15758 18.1192 7.84502 18.4317C7.53246 18.7443 7.10854 18.9199 6.66651 18.9199Z" fill="#656365"/>
</g>
<defs>
<clipPath id="clip0_45_1565">
<rect width="24" height="24" fill="white"/>
</clipPath>
</defs>
</svg>
