<svg width="25" height="25" viewBox="0 0 25 25" fill="none" xmlns="http://www.w3.org/2000/svg">
<g id="card icons">
<path id="Vector" d="M18.333 19C19.163 19 19.833 18.33 19.833 17.5C19.833 16.67 19.163 16 18.333 16C17.503 16 16.833 16.67 16.833 17.5C16.833 18.33 17.503 19 18.333 19ZM19.833 10H17.333V12.5H21.793L19.833 10ZM6.33301 19C7.16301 19 7.83301 18.33 7.83301 17.5C7.83301 16.67 7.16301 16 6.33301 16C5.50301 16 4.83301 16.67 4.83301 17.5C4.83301 18.33 5.50301 19 6.33301 19ZM20.333 8.5L23.333 12.5V17.5H21.333C21.333 19.16 19.993 20.5 18.333 20.5C16.673 20.5 15.333 19.16 15.333 17.5H9.33301C9.33301 19.16 7.99301 20.5 6.33301 20.5C4.67301 20.5 3.33301 19.16 3.33301 17.5H1.33301V6.5C1.33301 5.39 2.22301 4.5 3.33301 4.5H17.333V8.5H20.333ZM3.33301 6.5V15.5H4.09301C4.64301 14.89 5.44301 14.5 6.33301 14.5C7.22301 14.5 8.02301 14.89 8.57301 15.5H15.333V6.5H3.33301Z" fill="#656365"/>
</g>
</svg>
