<svg width="25" height="25" viewBox="0 0 25 25" fill="none" xmlns="http://www.w3.org/2000/svg">
<g id="card icons">
<path id="Vector" d="M12.5 2.5C8.08 2.5 4.5 3 4.5 6.5V16.5C4.5 17.38 4.89 18.17 5.5 18.72V20.5C5.5 21.05 5.95 21.5 6.5 21.5H7.5C8.05 21.5 8.5 21.05 8.5 20.5V19.5H16.5V20.5C16.5 21.05 16.95 21.5 17.5 21.5H18.5C19.05 21.5 19.5 21.05 19.5 20.5V18.72C20.11 18.17 20.5 17.38 20.5 16.5V6.5C20.5 3 16.92 2.5 12.5 2.5ZM18.16 5.49H6.84C7.39 4.96 8.81 4.5 12.5 4.5C16.19 4.5 17.61 4.96 18.16 5.49ZM18.5 7.49V10.5H6.5V7.49H18.5ZM18.16 17.23L17.87 17.5H7.13L6.84 17.23C6.73425 17.1399 6.64915 17.028 6.59049 16.902C6.53182 16.7761 6.50096 16.639 6.5 16.5V12.5H18.5V16.5C18.5 16.87 18.29 17.12 18.16 17.23Z" fill="#656365"/>
<path id="Vector_2" d="M9 16.5C9.82843 16.5 10.5 15.8284 10.5 15C10.5 14.1716 9.82843 13.5 9 13.5C8.17157 13.5 7.5 14.1716 7.5 15C7.5 15.8284 8.17157 16.5 9 16.5Z" fill="#656365"/>
<path id="Vector_3" d="M16 16.5C16.8284 16.5 17.5 15.8284 17.5 15C17.5 14.1716 16.8284 13.5 16 13.5C15.1716 13.5 14.5 14.1716 14.5 15C14.5 15.8284 15.1716 16.5 16 16.5Z" fill="#656365"/>
</g>
</svg>
