<svg width="24" height="24" viewBox="0 0 24 24" fill="none" xmlns="http://www.w3.org/2000/svg">
<g id="Notification" clip-path="url(#clip0_286_470)">
<path id="Vector" d="M12.0196 2.90997C8.7096 2.90997 6.0196 5.59997 6.0196 8.90997V11.8C6.0196 12.41 5.7596 13.34 5.4496 13.86L4.2996 15.77C3.5896 16.95 4.0796 18.26 5.3796 18.7C9.6896 20.14 14.3396 20.14 18.6496 18.7C19.8596 18.3 20.3896 16.87 19.7296 15.77L18.5796 13.86C18.2796 13.34 18.0196 12.41 18.0196 11.8V8.90997C18.0196 5.60997 15.3196 2.90997 12.0196 2.90997Z" stroke="#89898A" stroke-width="1.5" stroke-miterlimit="10" stroke-linecap="round"/>
<path id="Vector_2" d="M13.8699 3.2C12.6606 2.85559 11.3792 2.85559 10.1699 3.2C10.4599 2.46 11.1799 1.94 12.0199 1.94C12.8599 1.94 13.5799 2.46 13.8699 3.2V3.2Z" stroke="#89898A" stroke-width="1.5" stroke-miterlimit="10" stroke-linecap="round" stroke-linejoin="round"/>
<path id="Vector_3" d="M15.0195 19.06C15.0195 20.71 13.6695 22.06 12.0195 22.06C11.1995 22.06 10.4395 21.72 9.89953 21.18C9.33769 20.6173 9.02132 19.8552 9.01953 19.06" stroke="#89898A" stroke-width="1.5" stroke-miterlimit="10"/>
<circle id="Ellipse 6" cx="19" cy="5" r="5.5" fill="#E45555" stroke="white"/>
</g>
<defs>
<clipPath id="clip0_286_470">
<rect width="24" height="24" fill="white"/>
</clipPath>
</defs>
</svg>
