<svg width="25" height="25" viewBox="0 0 25 25" fill="none" xmlns="http://www.w3.org/2000/svg">
<g id="card icons" clip-path="url(#clip0_389_400)">
<path id="Vector" d="M10.666 11.8334H12.666V13.1667H10.666V11.8334Z" fill="#656365"/>
<path id="Vector_2" d="M18.299 9.94662C17.1167 8.01182 15.5037 6.37603 13.5857 5.16662C12.6996 4.60504 11.6896 4.26891 10.6437 4.18757C9.59782 4.10622 8.54793 4.28213 7.58569 4.69995C6.74403 5.09695 6.01165 5.69286 5.45181 6.43622C4.89197 7.17958 4.52148 8.04805 4.37236 8.96662C4.31902 9.27995 4.27902 9.57995 4.23902 9.87328C3.61485 9.97445 3.04694 10.2941 2.63664 10.7752C2.22635 11.2564 2.00036 11.8676 1.99902 12.5V16.5866C1.99902 16.9402 2.1395 17.2794 2.38955 17.5294C2.6396 17.7795 2.97873 17.92 3.33236 17.92V12.5C3.33236 12.1463 3.47283 11.8072 3.72288 11.5571C3.97293 11.3071 4.31207 11.1666 4.66569 11.1666H17.1524C18.4372 11.1684 19.669 11.6796 20.5775 12.5881C21.4861 13.4967 21.9973 14.7284 21.999 16.0133V16.5H20.6657C20.3841 15.8134 19.8596 15.2545 19.1923 14.9299C18.5249 14.6054 17.7614 14.5379 17.0475 14.7404C16.3336 14.9429 15.7192 15.4011 15.3216 16.0277C14.924 16.6542 14.771 17.4053 14.8918 18.1375C15.0126 18.8696 15.3988 19.5317 15.9766 19.9973C16.5544 20.463 17.2834 20.6995 18.0246 20.6619C18.7657 20.6243 19.467 20.3151 19.9948 19.7934C20.5225 19.2717 20.8396 18.5739 20.8857 17.8333H21.999C22.3526 17.8333 22.6918 17.6928 22.9418 17.4428C23.1919 17.1927 23.3324 16.8536 23.3324 16.5V16.0133C23.3297 14.5746 22.8256 13.1818 21.907 12.0745C20.9883 10.9673 19.7125 10.2148 18.299 9.94662ZM7.99902 9.83328H5.28569C5.28569 9.62662 5.34569 9.41328 5.38569 9.16662C5.50087 8.43426 5.80145 7.74353 6.25887 7.16009C6.71628 6.57666 7.31531 6.11992 7.99902 5.83328V9.83328ZM9.33236 9.83328V5.55328C10.577 5.39166 11.8393 5.66483 12.9057 6.32662C14.3615 7.2334 15.618 8.4264 16.599 9.83328H9.33236ZM17.8657 19.42C17.5361 19.42 17.2138 19.3222 16.9397 19.1391C16.6657 18.9559 16.452 18.6956 16.3259 18.3911C16.1997 18.0865 16.1667 17.7514 16.231 17.4281C16.2954 17.1048 16.4541 16.8079 16.6872 16.5748C16.9203 16.3417 17.2172 16.183 17.5405 16.1186C17.8638 16.0543 18.199 16.0873 18.5035 16.2135C18.808 16.3396 19.0683 16.5533 19.2515 16.8273C19.4346 17.1014 19.5324 17.4236 19.5324 17.7533C19.5324 18.1953 19.3568 18.6192 19.0442 18.9318C18.7316 19.2444 18.3077 19.42 17.8657 19.42Z" fill="#656365"/>
<path id="Vector_3" d="M10.113 16.5C9.83145 15.8134 9.30695 15.2545 8.6396 14.93C7.97225 14.6054 7.20877 14.538 6.49484 14.7404C5.78092 14.9429 5.16653 15.4012 4.76892 16.0277C4.37131 16.6543 4.21832 17.4053 4.33913 18.1375C4.45994 18.8697 4.84609 19.5318 5.42392 19.9974C6.00174 20.463 6.73077 20.6996 7.4719 20.662C8.21302 20.6244 8.91436 20.3152 9.44208 19.7935C9.96979 19.2717 10.2869 18.574 10.333 17.8333H13.8663V17.6667C13.8532 17.2733 13.8981 16.8802 13.9997 16.5H10.113ZM7.33301 19.42C7.00338 19.42 6.68114 19.3223 6.40706 19.1391C6.13298 18.956 5.91936 18.6957 5.79321 18.3911C5.66707 18.0866 5.63406 17.7515 5.69837 17.4282C5.76268 17.1049 5.92141 16.8079 6.1545 16.5748C6.38759 16.3417 6.68456 16.183 7.00786 16.1187C7.33116 16.0544 7.66627 16.0874 7.97082 16.2135C8.27536 16.3397 8.53566 16.5533 8.71879 16.8274C8.90193 17.1015 8.99968 17.4237 8.99968 17.7533C8.99968 18.1954 8.82408 18.6193 8.51152 18.9318C8.19896 19.2444 7.77504 19.42 7.33301 19.42Z" fill="#656365"/>
</g>
<defs>
<clipPath id="clip0_389_400">
<rect width="24" height="24" fill="white" transform="translate(0.666016 0.5)"/>
</clipPath>
</defs>
</svg>
