<svg width="24" height="24" viewBox="0 0 24 24" fill="none" xmlns="http://www.w3.org/2000/svg">
<g id="Property 1=van, Property 2=taxi">
<path id="Vector" d="M23.8191 10.7616L19.5497 5.78719C19.4089 5.61899 19.2329 5.48371 19.0342 5.3909C18.8354 5.29808 18.6187 5.24999 18.3994 5.25H3C2.60218 5.25 2.22064 5.40804 1.93934 5.68934C1.65804 5.97064 1.5 6.35218 1.5 6.75V17.25C1.5 17.6478 1.65804 18.0294 1.93934 18.3107C2.22064 18.592 2.60218 18.75 3 18.75H4.59375C4.75898 19.3953 5.13428 19.9673 5.66048 20.3757C6.18669 20.7842 6.83387 21.0059 7.5 21.0059C8.16613 21.0059 8.81331 20.7842 9.33952 20.3757C9.86572 19.9673 10.241 19.3953 10.4062 18.75H15.0938C15.259 19.3953 15.6343 19.9673 16.1605 20.3757C16.6867 20.7842 17.3339 21.0059 18 21.0059C18.6661 21.0059 19.3133 20.7842 19.8395 20.3757C20.3657 19.9673 20.741 19.3953 20.9062 18.75H22.5C22.8978 18.75 23.2794 18.592 23.5607 18.3107C23.842 18.0294 24 17.6478 24 17.25V11.25C24 11.0708 23.9358 10.8975 23.8191 10.7616ZM21.6178 10.5H16.5V6.75H18.3994L21.6178 10.5ZM9.75 10.5V6.75H15V10.5H9.75ZM8.25 6.75V10.5H3V6.75H8.25ZM7.5 19.5C7.20333 19.5 6.91332 19.412 6.66665 19.2472C6.41997 19.0824 6.22771 18.8481 6.11418 18.574C6.00065 18.2999 5.97094 17.9983 6.02882 17.7074C6.0867 17.4164 6.22956 17.1491 6.43934 16.9393C6.64912 16.7296 6.91639 16.5867 7.20736 16.5288C7.49834 16.4709 7.79994 16.5006 8.07403 16.6142C8.34811 16.7277 8.58238 16.92 8.7472 17.1666C8.91203 17.4133 9 17.7033 9 18C9 18.3978 8.84196 18.7794 8.56066 19.0607C8.27936 19.342 7.89782 19.5 7.5 19.5ZM18 19.5C17.7033 19.5 17.4133 19.412 17.1666 19.2472C16.92 19.0824 16.7277 18.8481 16.6142 18.574C16.5006 18.2999 16.4709 17.9983 16.5288 17.7074C16.5867 17.4164 16.7296 17.1491 16.9393 16.9393C17.1491 16.7296 17.4164 16.5867 17.7074 16.5288C17.9983 16.4709 18.2999 16.5006 18.574 16.6142C18.8481 16.7277 19.0824 16.92 19.2472 17.1666C19.412 17.4133 19.5 17.7033 19.5 18C19.5 18.3978 19.342 18.7794 19.0607 19.0607C18.7794 19.342 18.3978 19.5 18 19.5ZM20.9062 17.25C20.741 16.6047 20.3657 16.0327 19.8395 15.6243C19.3133 15.2158 18.6661 14.9941 18 14.9941C17.3339 14.9941 16.6867 15.2158 16.1605 15.6243C15.6343 16.0327 15.259 16.6047 15.0938 17.25H10.4062C10.241 16.6047 9.86572 16.0327 9.33952 15.6243C8.81331 15.2158 8.16613 14.9941 7.5 14.9941C6.83387 14.9941 6.18669 15.2158 5.66048 15.6243C5.13428 16.0327 4.75898 16.6047 4.59375 17.25H3V12H22.5V17.25H20.9062Z" fill="#656365"/>
</g>
</svg>
