<svg width="24" height="24" viewBox="0 0 24 24" fill="none" xmlns="http://www.w3.org/2000/svg">
<g id="simple-line-icons:logout" clip-path="url(#clip0_143_2987)">
<path id="Vector" d="M21.2618 12.7421H8.26694C7.85219 12.7421 7.51694 12.4061 7.51694 11.9921C7.51694 11.5781 7.85219 11.2421 8.26694 11.2421H21.2149L18.5018 8.529C18.2089 8.23612 18.2089 7.76137 18.5018 7.4685C18.7947 7.17563 19.2694 7.17563 19.5623 7.4685L23.9922 12.0154L19.5623 16.5623C19.4157 16.7089 19.2241 16.782 19.0321 16.782C18.8401 16.782 18.6484 16.7089 18.5018 16.5623C18.2089 16.2694 18.2089 15.7946 18.5018 15.5018L21.2618 12.7421ZM1.50794 0H14.258C15.0867 0 15.758 0.671625 15.758 1.5V8.25H14.2482V2.41463C14.2482 1.91363 13.8417 1.50713 13.3407 1.50713H2.44884C1.94748 1.50713 1.54134 1.91363 1.54134 2.41463L1.51773 21.5933C1.51773 22.0942 1.92386 22.5007 2.42523 22.5007H13.3403C13.8413 22.5007 14.2478 22.0942 14.2478 21.5933V15.7252L15.7576 15.7271V22.5C15.7576 23.3284 15.0863 24 14.2576 24H1.50794C0.679188 24 0.00756264 23.3284 0.00756264 22.5V1.5C0.00791359 0.671625 0.679562 0 1.50794 0Z" fill="#f7f0f0"/>
</g>
<defs>
<clipPath id="clip0_143_2987">
<rect width="24" height="24" fill="white" transform="matrix(-1 0 0 1 24 0)"/>
</clipPath>
</defs>
</svg>
