<svg width="24" height="25" viewBox="0 0 24 25" fill="none" xmlns="http://www.w3.org/2000/svg">
<g id="card icons">
<path id="Vector" d="M23.8191 11.2616L19.5497 6.28719C19.4089 6.11899 19.2329 5.98371 19.0342 5.8909C18.8354 5.79808 18.6187 5.74999 18.3994 5.75H3C2.60218 5.75 2.22064 5.90804 1.93934 6.18934C1.65804 6.47064 1.5 6.85218 1.5 7.25V17.75C1.5 18.1478 1.65804 18.5294 1.93934 18.8107C2.22064 19.092 2.60218 19.25 3 19.25H4.59375C4.75898 19.8953 5.13428 20.4673 5.66048 20.8757C6.18669 21.2842 6.83387 21.5059 7.5 21.5059C8.16613 21.5059 8.81331 21.2842 9.33952 20.8757C9.86572 20.4673 10.241 19.8953 10.4062 19.25H15.0938C15.259 19.8953 15.6343 20.4673 16.1605 20.8757C16.6867 21.2842 17.3339 21.5059 18 21.5059C18.6661 21.5059 19.3133 21.2842 19.8395 20.8757C20.3657 20.4673 20.741 19.8953 20.9062 19.25H22.5C22.8978 19.25 23.2794 19.092 23.5607 18.8107C23.842 18.5294 24 18.1478 24 17.75V11.75C24 11.5708 23.9358 11.3975 23.8191 11.2616ZM21.6178 11H16.5V7.25H18.3994L21.6178 11ZM9.75 11V7.25H15V11H9.75ZM8.25 7.25V11H3V7.25H8.25ZM7.5 20C7.20333 20 6.91332 19.912 6.66665 19.7472C6.41997 19.5824 6.22771 19.3481 6.11418 19.074C6.00065 18.7999 5.97094 18.4983 6.02882 18.2074C6.0867 17.9164 6.22956 17.6491 6.43934 17.4393C6.64912 17.2296 6.91639 17.0867 7.20736 17.0288C7.49834 16.9709 7.79994 17.0006 8.07403 17.1142C8.34811 17.2277 8.58238 17.42 8.7472 17.6666C8.91203 17.9133 9 18.2033 9 18.5C9 18.8978 8.84196 19.2794 8.56066 19.5607C8.27936 19.842 7.89782 20 7.5 20ZM18 20C17.7033 20 17.4133 19.912 17.1666 19.7472C16.92 19.5824 16.7277 19.3481 16.6142 19.074C16.5006 18.7999 16.4709 18.4983 16.5288 18.2074C16.5867 17.9164 16.7296 17.6491 16.9393 17.4393C17.1491 17.2296 17.4164 17.0867 17.7074 17.0288C17.9983 16.9709 18.2999 17.0006 18.574 17.1142C18.8481 17.2277 19.0824 17.42 19.2472 17.6666C19.412 17.9133 19.5 18.2033 19.5 18.5C19.5 18.8978 19.342 19.2794 19.0607 19.5607C18.7794 19.842 18.3978 20 18 20ZM20.9062 17.75C20.741 17.1047 20.3657 16.5327 19.8395 16.1243C19.3133 15.7158 18.6661 15.4941 18 15.4941C17.3339 15.4941 16.6867 15.7158 16.1605 16.1243C15.6343 16.5327 15.259 17.1047 15.0938 17.75H10.4062C10.241 17.1047 9.86572 16.5327 9.33952 16.1243C8.81331 15.7158 8.16613 15.4941 7.5 15.4941C6.83387 15.4941 6.18669 15.7158 5.66048 16.1243C5.13428 16.5327 4.75898 17.1047 4.59375 17.75H3V12.5H22.5V17.75H20.9062Z" fill="#656365"/>
</g>
</svg>
