<svg width="24" height="24" viewBox="0 0 24 24" fill="none" xmlns="http://www.w3.org/2000/svg">
<g id="Component 1">
<path id="Vector" d="M19.2198 0.99528C19.0933 0.996733 19.0711 1.02373 19.069 1.02622C19.0668 1.02875 19.0431 1.05458 19.0597 1.18006C19.0763 1.30555 19.1422 1.50139 19.2639 1.72508C19.5072 2.17245 19.9633 2.73134 20.5572 3.24575C21.151 3.7602 21.7692 4.13192 22.2467 4.30897C22.4854 4.39747 22.6887 4.43473 22.8153 4.43328C22.9418 4.43187 22.964 4.40487 22.9662 4.40234C22.9684 4.39981 22.992 4.37403 22.9754 4.24855C22.9587 4.12306 22.8929 3.92722 22.7712 3.70353C22.5279 3.25616 22.0718 2.69726 21.4779 2.18281C20.8841 1.66841 20.2658 1.29669 19.7883 1.11964C19.5495 1.03109 19.3464 0.993827 19.2198 0.99528ZM12 2.76566C5.91623 2.76566 0.984375 7.69751 0.984375 13.7813C0.984375 16.732 2.14453 19.4117 4.03359 21.3892C-0.245906 23.6751 8.86702 22.7813 12 22.7813C15.1249 22.7813 23.8822 24.0544 21.3243 20.2182C22.6784 17.8336 23.0156 16.7401 23.0156 13.7813C23.0156 10.7422 21.7849 7.99072 19.7947 5.99773L16.461 7.97427L17.9055 4.48114C16.1987 3.39509 14.1729 2.76566 12 2.76566ZM19.3133 3.28456L18.208 5.95756L20.6961 4.48236L20.0051 3.88386L20.0047 3.88353L20.0044 3.88315L19.3133 3.28456ZM12 6.60941C15.9559 6.60941 19.1719 9.82536 19.1719 13.7813C19.1719 17.7372 15.9559 20.9532 12 20.9532C8.04408 20.9532 4.82812 17.7372 4.82812 13.7813C4.82812 9.82536 8.04408 6.60941 12 6.60941ZM12 7.45316C11.043 7.45316 10.1364 7.66503 9.32391 8.04387C9.86517 9.58512 10.7915 11.5313 12 11.5313C13.2105 11.5313 14.1059 9.57894 14.6603 8.03652C13.8518 7.66231 12.9508 7.45316 12 7.45316ZM16.629 9.46316C15.3299 10.4542 13.763 11.9377 14.1367 13.0879C14.5108 14.2393 16.6448 14.4875 18.2832 14.538C18.3126 14.2898 18.3281 14.0375 18.3281 13.7813C18.3281 12.1106 17.6834 10.5932 16.629 9.46316ZM7.36045 9.47455C6.31233 10.6033 5.67188 12.1161 5.67188 13.7813C5.67188 14.0414 5.68781 14.2977 5.71819 14.5496C7.35098 14.5109 9.48605 14.2311 9.85931 13.0824C10.2331 11.932 8.65556 10.4783 7.36045 9.47455ZM10.6505 11.5203C10.5738 11.5225 10.4991 11.5456 10.4345 11.5871C10.3699 11.6286 10.3179 11.6869 10.284 11.7558C10.2501 11.8247 10.2357 11.9016 10.2422 11.9781C10.2488 12.0545 10.2761 12.1278 10.3212 12.1899C10.3639 12.2487 10.4211 12.2955 10.4873 12.3257C10.5534 12.3559 10.6262 12.3686 10.6986 12.3623C10.771 12.3561 10.8406 12.3313 10.9007 12.2903C10.9607 12.2493 11.0091 12.1934 11.0411 12.1282C11.0732 12.063 11.0879 11.9905 11.0838 11.918C11.0796 11.8454 11.0568 11.7751 11.0175 11.7139C10.9782 11.6528 10.9237 11.6028 10.8594 11.5689C10.7952 11.535 10.7232 11.5182 10.6505 11.5203ZM13.3495 11.5203C13.2768 11.5182 13.2048 11.535 13.1406 11.5689C13.0763 11.6028 13.0218 11.6528 12.9825 11.7139C12.9432 11.7751 12.9204 11.8454 12.9162 11.918C12.9121 11.9905 12.9268 12.063 12.9589 12.1282C12.9909 12.1934 13.0393 12.2493 13.0993 12.2903C13.1594 12.3313 13.229 12.3561 13.3014 12.3623C13.3738 12.3686 13.4466 12.3559 13.5127 12.3257C13.5789 12.2955 13.6361 12.2487 13.6788 12.1899C13.7239 12.1278 13.7512 12.0545 13.7578 11.9781C13.7643 11.9016 13.7499 11.8247 13.716 11.7558C13.6821 11.6869 13.6301 11.6286 13.5655 11.5871C13.5009 11.5456 13.4262 11.5225 13.3495 11.5203ZM12 12.2813C11.1716 12.2813 10.5 12.9529 10.5 13.7813C10.5 14.6097 11.1716 15.2813 12 15.2813C12.8284 15.2813 13.5 14.6097 13.5 13.7813C13.5 12.9529 12.8284 12.2813 12 12.2813ZM9.82983 14.0643C9.76376 14.0652 9.69884 14.0817 9.6403 14.1123C9.58175 14.1429 9.53122 14.1868 9.49276 14.2406C9.45431 14.2943 9.42901 14.3563 9.4189 14.4216C9.40879 14.4869 9.41416 14.5537 9.43458 14.6165C9.46916 14.7229 9.54458 14.8112 9.64427 14.862C9.74396 14.9128 9.85973 14.9219 9.96614 14.8873C10.0622 14.8562 10.1438 14.7916 10.1963 14.7053C10.2488 14.619 10.2685 14.5168 10.252 14.4172C10.2355 14.3176 10.1839 14.2272 10.1064 14.1624C10.0289 14.0976 9.93079 14.0628 9.82983 14.0643ZM14.1472 14.0645C14.0419 14.0688 13.9419 14.1123 13.867 14.1865C13.7922 14.2607 13.7478 14.3603 13.7427 14.4656C13.7376 14.5709 13.7721 14.6743 13.8394 14.7554C13.9067 14.8366 14.0019 14.8896 14.1064 14.904C14.2108 14.9184 14.3168 14.8932 14.4036 14.8333C14.4904 14.7735 14.5516 14.6833 14.5752 14.5805C14.5988 14.4778 14.5831 14.3699 14.5312 14.2782C14.4792 14.1865 14.3948 14.1175 14.2945 14.0849C14.247 14.0694 14.1971 14.0625 14.1472 14.0645ZM9.86325 15.3637C8.85122 15.3686 7.50825 16.1527 6.46838 16.8603C7.36036 18.4619 8.92744 19.6336 10.7876 19.9933C11.2559 18.4281 11.651 16.3081 10.6729 15.5975C10.4454 15.4322 10.1696 15.3622 9.86325 15.3637ZM14.1296 15.3646C13.8212 15.3646 13.5441 15.4357 13.3165 15.601C12.3371 16.3126 12.7605 18.4184 13.2187 19.9921C15.079 19.6305 16.6456 18.4565 17.5358 16.8528C16.5043 16.1391 15.1483 15.3646 14.1296 15.3646V15.3646ZM12 15.6366C11.8881 15.6366 11.7808 15.681 11.7017 15.7602C11.6226 15.8393 11.5781 15.9466 11.5781 16.0585C11.5781 16.1704 11.6226 16.2777 11.7017 16.3568C11.7808 16.4359 11.8881 16.4803 12 16.4803C12.1119 16.4803 12.2192 16.4359 12.2983 16.3568C12.3774 16.2777 12.4219 16.1704 12.4219 16.0585C12.4219 15.9466 12.3774 15.8393 12.2983 15.7602C12.2192 15.681 12.1119 15.6366 12 15.6366Z" fill="#f7f0f0"/>
</g>
</svg>
