<svg width="19" height="19" viewBox="0 0 19 19" fill="none" xmlns="http://www.w3.org/2000/svg">
<g id="Upward Trend">
<path id="Vector" d="M6.29319 11.9885C6.15417 11.9885 6.01514 11.9373 5.90539 11.8275C5.80333 11.7243 5.74609 11.5849 5.74609 11.4397C5.74609 11.2945 5.80333 11.1552 5.90539 11.0519L8.24685 8.71047C8.30345 8.65237 8.37237 8.6077 8.44852 8.57976C8.52467 8.55183 8.60612 8.54134 8.68687 8.54906C8.76762 8.55678 8.8456 8.58253 8.91508 8.62439C8.98456 8.66626 9.04376 8.72318 9.08831 8.79096L9.88588 9.99096L12.4834 7.3934C12.6956 7.1812 13.0469 7.1812 13.259 7.3934C13.4712 7.60559 13.4712 7.95681 13.259 8.16901L10.1859 11.2422C10.1293 11.3003 10.0604 11.345 9.98421 11.3729C9.90805 11.4008 9.8266 11.4113 9.74585 11.4036C9.66511 11.3959 9.58712 11.3701 9.51765 11.3283C9.44817 11.2864 9.38897 11.2295 9.34441 11.1617L8.54685 9.96169L6.681 11.8275C6.57124 11.9373 6.43222 11.9885 6.29319 11.9885V11.9885Z" fill="black"/>
<path id="Vector_2" d="M12.8794 9.79266C12.5794 9.79266 12.3306 9.54388 12.3306 9.24388V8.32925H11.416C11.116 8.32925 10.8672 8.08047 10.8672 7.78047C10.8672 7.48047 11.116 7.23169 11.416 7.23169H12.8794C13.1794 7.23169 13.4282 7.48047 13.4282 7.78047V9.24388C13.4282 9.54388 13.1794 9.79266 12.8794 9.79266Z" fill="black"/>
<path id="Vector_3" d="M11.7817 17.4756H7.39143C3.41826 17.4756 1.7207 15.778 1.7207 11.8049V7.41463C1.7207 3.44146 3.41826 1.7439 7.39143 1.7439H11.7817C15.7548 1.7439 17.4524 3.44146 17.4524 7.41463V11.8049C17.4524 15.778 15.7548 17.4756 11.7817 17.4756ZM7.39143 2.84146C4.01826 2.84146 2.81826 4.04146 2.81826 7.41463V11.8049C2.81826 15.178 4.01826 16.378 7.39143 16.378H11.7817C15.1548 16.378 16.3548 15.178 16.3548 11.8049V7.41463C16.3548 4.04146 15.1548 2.84146 11.7817 2.84146H7.39143Z" fill="black"/>
</g>
</svg>
